<svg width="141" height="116" viewBox="0 0 141 116" fill="none" xmlns="http://www.w3.org/2000/svg">
<rect x="1.5" y="1.5" width="137.946" height="113" fill="#282A29" stroke="#64DDF0" stroke-width="3"/>
<rect x="1.5" y="1.5" width="138" height="57.6883" fill="#64DDF0" stroke="#64DDF0" stroke-width="3"/>
<path d="M25.8765 14.7301C17.4198 14.7301 10.8423 20.8431 10.8423 30.3441C10.8423 38.8139 16.4078 45.958 25.3705 45.958C30.2856 45.958 34.7669 43.8958 37.4413 39.5504V44.4114C37.4413 44.8533 37.6581 45.0742 38.0918 45.0742H40.2602C40.6939 45.0742 40.9107 44.8533 40.9107 44.4114V30.4177C40.9107 20.4749 34.3333 14.7301 25.8765 14.7301ZM25.8765 42.7911C18.6485 42.7911 14.3117 37.7828 14.3117 30.3441C14.3117 23.1263 18.6485 18.0444 25.8765 18.0444C33.3936 18.0444 37.4413 22.9053 37.4413 30.3441C37.4413 37.7828 33.1045 42.7911 25.8765 42.7911Z" fill="#282A29"/>
<path d="M74.4198 36.5307C74.0584 36.3098 73.7693 36.4571 73.5524 36.8253C71.7454 40.5815 68.1314 42.7174 63.2164 42.7174C55.9884 42.7174 51.6516 38.0038 51.6516 30.3441C51.6516 22.6844 55.9884 17.9707 63.2164 17.9707C68.4206 17.9707 72.1791 20.3276 73.9138 24.5257C74.1307 24.8939 74.3475 25.0412 74.7089 24.8939L76.6605 24.1574C77.0219 23.9365 77.1664 23.7155 77.0219 23.3472C74.7089 17.6761 69.577 14.7301 63.2164 14.7301C54.7597 14.7301 48.1822 20.3276 48.1822 30.3441C48.1822 40.3606 54.7597 45.958 63.2164 45.958C69.2879 45.958 74.203 43.233 76.5882 38.1511C76.805 37.8565 76.5882 37.4145 76.2991 37.3409L74.4198 36.5307Z" fill="#282A29"/>
<path d="M117.874 14.7301C113.031 14.7301 109.272 16.7187 107.321 20.5485C105.297 16.7187 101.611 14.7301 96.7678 14.7301C89.323 14.7301 84.4803 19.3701 84.4803 28.2082V44.4114C84.4803 44.8533 84.6971 45.0742 85.1308 45.0742H87.2992C87.7328 45.0742 87.9497 44.8533 87.9497 44.4114V28.2082C87.9497 21.7269 90.7686 17.9707 96.7678 17.9707C102.044 17.9707 105.369 21.506 105.586 27.9872V44.4114C105.586 44.8533 105.803 45.0742 106.237 45.0742H108.405C108.839 45.0742 109.055 44.8533 109.055 44.4114V27.9136C109.055 21.0641 112.38 17.9707 117.874 17.9707C123.873 17.9707 126.692 21.7269 126.692 28.2082V44.4114C126.692 44.8533 126.909 45.0742 127.342 45.0742H129.511C129.944 45.0742 130.161 44.8533 130.161 44.4114V28.2082C130.161 19.3701 125.318 14.7301 117.874 14.7301Z" fill="#282A29"/>
<path d="M58.908 99.4286C54.4989 99.4286 48.6442 97.2927 48.6442 87.9391V72.988C48.6442 72.5461 48.4274 72.3251 47.9937 72.3251H45.8253C45.3916 72.3251 45.1748 72.5461 45.1748 72.988V87.9391C45.1748 97.7346 50.8849 102.669 58.908 102.669C66.9311 102.669 72.6412 97.7346 72.6412 87.9391V72.988C72.6412 72.5461 72.4243 72.3251 71.9906 72.3251H69.8223C69.3886 72.3251 69.1717 72.5461 69.1717 72.988V87.9391C69.1717 97.2927 63.1725 99.4286 58.908 99.4286Z" fill="#64DDF0"/>
<path d="M95.2648 72.988C95.2648 72.5461 95.0479 72.2515 94.6865 72.1778C93.5301 71.8832 92.3736 71.8096 91.2894 71.8096C85.7238 71.8096 81.3148 75.1239 81.3148 81.8997V101.123C81.3148 101.564 81.5316 101.785 81.9653 101.785H84.1337C84.5673 101.785 84.7842 101.564 84.7842 101.123V81.6788C84.7842 76.6705 87.8199 75.1975 91.2894 75.1975C92.229 75.1975 93.2409 75.2712 94.1806 75.4921C94.6865 75.5658 94.9034 75.4185 94.9034 74.9766L95.2648 72.988Z" fill="#64DDF0"/>
</svg>
